<svg xmlns="http://www.w3.org/2000/svg" viewBox="0 0 900 548" font-family="'Segoe UI',Arial,sans-serif">
<defs>
  <marker id="ag" markerWidth="8" markerHeight="7" refX="6" refY="3" orient="auto"><path d="M0 0L0 6L8 3z" fill="#f5c518"/></marker>
  <marker id="ab" markerWidth="8" markerHeight="7" refX="6" refY="3" orient="auto"><path d="M0 0L0 6L8 3z" fill="#6ea8fe"/></marker>
  <marker id="ap" markerWidth="8" markerHeight="7" refX="6" refY="3" orient="auto"><path d="M0 0L0 6L8 3z" fill="#7c4dff"/></marker>
  <marker id="an" markerWidth="8" markerHeight="7" refX="6" refY="3" orient="auto"><path d="M0 0L0 6L8 3z" fill="#12c99b"/></marker>
  <marker id="ar" markerWidth="8" markerHeight="7" refX="6" refY="3" orient="auto"><path d="M0 0L0 6L8 3z" fill="#ff5d73"/></marker>
</defs>

<!-- ── Background ── -->
<rect width="900" height="548" fill="#060e1a" rx="16"/>

<!-- ── Title ── -->
<text x="450" y="26" text-anchor="middle" fill="#f5c518" font-size="15" font-weight="700" letter-spacing="0.5">Contact Book — System Architecture</text>

<!-- ══════════════════════════ BROWSER LAYER ══════════════════════════ -->
<rect x="20" y="36" width="860" height="95" rx="10" fill="none" stroke="#8a97b0" stroke-dasharray="5 3"/>
<text x="36" y="52" fill="#8a97b0" font-size="9" font-weight="600" letter-spacing="2">BROWSER</text>

<!-- Django Templates -->
<rect x="38" y="58" width="255" height="66" rx="8" fill="#0a1628" stroke="#f5c518" stroke-width="1.5"/>
<circle cx="65" cy="84" r="14" fill="rgba(245,197,24,0.12)" stroke="#f5c518" stroke-width="1.3"/>
<text x="65" y="89" text-anchor="middle" fill="#f5c518" font-size="8" font-weight="700">HTML</text>
<text x="90" y="81" fill="#f5c518" font-size="11.5" font-weight="600">Django Templates</text>
<text x="90" y="96" fill="#8a97b0" font-size="9">Dashboard · Login · CRUD forms</text>
<text x="90" y="112" fill="#8a97b0" font-size="8.5" font-style="italic">Glassmorphism · HTML / CSS / JS</text>

<!-- REST API Client -->
<rect x="313" y="58" width="255" height="66" rx="8" fill="#0a1628" stroke="#6ea8fe" stroke-width="1.5"/>
<circle cx="340" cy="84" r="14" fill="rgba(110,168,254,0.12)" stroke="#6ea8fe" stroke-width="1.3"/>
<text x="340" y="89" text-anchor="middle" fill="#6ea8fe" font-size="9" font-weight="700">&lt;/&gt;</text>
<text x="365" y="81" fill="#6ea8fe" font-size="11.5" font-weight="600">REST API Client</text>
<text x="365" y="96" fill="#8a97b0" font-size="9">JWT Bearer token · Swagger /doc/</text>
<text x="365" y="112" fill="#8a97b0" font-size="8.5" font-style="italic">Any HTTP client or integration</text>

<!-- AI Chat UI -->
<rect x="588" y="58" width="274" height="66" rx="8" fill="#0a1628" stroke="#7c4dff" stroke-width="1.5"/>
<circle cx="615" cy="84" r="14" fill="rgba(124,77,255,0.12)" stroke="#7c4dff" stroke-width="1.3"/>
<text x="615" y="89" text-anchor="middle" fill="#7c4dff" font-size="9" font-weight="700">AI</text>
<text x="640" y="81" fill="#7c4dff" font-size="11.5" font-weight="600">AI Chat UI</text>
<text x="640" y="96" fill="#8a97b0" font-size="9">Natural language · floating FAB button</text>
<text x="640" y="112" fill="#8a97b0" font-size="8.5" font-style="italic">Session-only history · erased on logout</text>

<!-- ═══ Arrows Browser → Django ═══ -->
<line x1="165" y1="124" x2="115" y2="165" stroke="#f5c518" stroke-width="1.5" marker-end="url(#ag)"/>
<line x1="440" y1="124" x2="190" y2="200" stroke="#6ea8fe" stroke-width="1.5" marker-end="url(#ab)"/>
<line x1="725" y1="124" x2="625" y2="180" stroke="#7c4dff" stroke-width="1.5" marker-end="url(#ap)"/>

<!-- ══════════════════════════ DJANGO APPLICATION LAYER ══════════════════════════ -->
<rect x="20" y="145" width="860" height="185" rx="10" fill="none" stroke="#6ea8fe" stroke-dasharray="5 3"/>
<text x="36" y="162" fill="#6ea8fe" font-size="9" font-weight="600" letter-spacing="2">DJANGO APPLICATION</text>

<!-- DRF Views -->
<rect x="38" y="165" width="158" height="155" rx="8" fill="#0a1628" stroke="#f5c518" stroke-width="1.5"/>
<circle cx="61" cy="188" r="13" fill="rgba(245,197,24,0.12)" stroke="#f5c518" stroke-width="1.3"/>
<text x="61" y="192" text-anchor="middle" fill="#f5c518" font-size="7.5" font-weight="700">DRF</text>
<text x="84" y="190" fill="#f5c518" font-size="11" font-weight="600">Views</text>
<text x="48" y="210" fill="#8a97b0" font-size="8.5">views.py  (REST API)</text>
<text x="48" y="223" fill="#8a97b0" font-size="8.5">views_templates.py</text>
<text x="48" y="236" fill="#8a97b0" font-size="8.5">JWT auth (simplejwt)</text>
<text x="48" y="249" fill="#8a97b0" font-size="8.5">serializers.py</text>
<text x="48" y="262" fill="#8a97b0" font-size="8.5">forms.py</text>
<text x="48" y="305" fill="#f5c518" font-size="7.5" font-style="italic">contacts app</text>

<!-- Arrow DRF Views → Services -->
<line x1="196" y1="242" x2="214" y2="242" stroke="#6ea8fe" stroke-width="1.5" marker-end="url(#ab)"/>

<!-- Services + Selectors -->
<rect x="214" y="165" width="160" height="155" rx="8" fill="#0a1628" stroke="#6ea8fe" stroke-width="1.5"/>
<circle cx="237" cy="188" r="13" fill="rgba(110,168,254,0.12)" stroke="#6ea8fe" stroke-width="1.3"/>
<text x="237" y="192" text-anchor="middle" fill="#6ea8fe" font-size="7" font-weight="700">SVC</text>
<text x="260" y="190" fill="#6ea8fe" font-size="11" font-weight="600">Services + Selectors</text>
<text x="224" y="210" fill="#8a97b0" font-size="8.5">ContactApiService</text>
<text x="224" y="223" fill="#8a97b0" font-size="8.5">create / update / delete</text>
<text x="224" y="236" fill="#8a97b0" font-size="8.5">apply_contact_filters()</text>
<text x="224" y="249" fill="#8a97b0" font-size="8.5">ServiceResult pattern</text>
<text x="224" y="262" fill="#8a97b0" font-size="8.5">Fat services, thin views</text>
<text x="224" y="305" fill="#6ea8fe" font-size="7.5" font-style="italic">contacts app</text>

<!-- ai_agent sub-section border -->
<rect x="382" y="160" width="480" height="165" rx="8" fill="rgba(124,77,255,0.04)" stroke="#7c4dff" stroke-width="1.3" stroke-dasharray="5 3"/>
<text x="622" y="176" text-anchor="middle" fill="#7c4dff" font-size="9" font-weight="600" letter-spacing="1">ai_agent APP  ·  LangGraph + LangChain</text>

<!-- RAG -->
<rect x="392" y="180" width="141" height="135" rx="6" fill="#0a1628" stroke="#7c4dff" stroke-width="1"/>
<circle cx="415" cy="201" r="13" fill="rgba(124,77,255,0.18)" stroke="#7c4dff" stroke-width="1"/>
<text x="415" y="205" text-anchor="middle" fill="#7c4dff" font-size="8" font-weight="700">RAG</text>
<text x="438" y="202" fill="#7c4dff" font-size="10.5" font-weight="600">RAG</text>
<text x="402" y="222" fill="#8a97b0" font-size="8.5">ChromaDB retriever</text>
<text x="402" y="235" fill="#8a97b0" font-size="8.5">top-3 chunks</text>
<text x="402" y="248" fill="#8a97b0" font-size="8.5">text-embedding-3-small</text>
<text x="402" y="261" fill="#8a97b0" font-size="8.5">paragraph chunking</text>
<text x="402" y="301" fill="#7c4dff" font-size="7.5" font-style="italic">rag.py</text>

<!-- Arrow RAG → Agent (retrieve) -->
<line x1="527" y1="247" x2="565" y2="247" stroke="#7c4dff" stroke-width="1.5" marker-end="url(#ap)"/>
<text x="546" y="242" text-anchor="middle" fill="#7c4dff" font-size="7">retrieve</text>

<!-- LangGraph Agent -->
<rect x="551" y="180" width="141" height="135" rx="6" fill="#0a1628" stroke="#7c4dff" stroke-width="1"/>
<circle cx="574" cy="201" r="13" fill="rgba(124,77,255,0.18)" stroke="#7c4dff" stroke-width="1"/>
<text x="574" y="205" text-anchor="middle" fill="#7c4dff" font-size="6.5" font-weight="700">GRAPH</text>
<text x="597" y="202" fill="#7c4dff" font-size="10.5" font-weight="600">LangGraph Agent</text>
<text x="561" y="222" fill="#8a97b0" font-size="8.5">① retrieve (RAG context)</text>
<text x="561" y="235" fill="#8a97b0" font-size="8.5">② agent → GPT-4o</text>
<text x="561" y="248" fill="#8a97b0" font-size="8.5">③ tool node (if needed)</text>
<text x="561" y="261" fill="#8a97b0" font-size="8.5">④ loop → END</text>
<text x="561" y="301" fill="#7c4dff" font-size="7.5" font-style="italic">agent.py</text>

<!-- Arrow Agent → Tools (tool_call) -->
<line x1="692" y1="247" x2="724" y2="247" stroke="#7c4dff" stroke-width="1.5" marker-end="url(#ap)"/>
<text x="708" y="242" text-anchor="middle" fill="#7c4dff" font-size="7">tool call</text>

<!-- AI Tools (4) -->
<rect x="710" y="180" width="142" height="135" rx="6" fill="#0a1628" stroke="#7c4dff" stroke-width="1"/>
<circle cx="733" cy="201" r="13" fill="rgba(124,77,255,0.18)" stroke="#7c4dff" stroke-width="1"/>
<text x="733" y="206" text-anchor="middle" fill="#7c4dff" font-size="12">⚒</text>
<text x="756" y="202" fill="#7c4dff" font-size="10.5" font-weight="600">4 AI Tools</text>
<text x="720" y="222" fill="#8a97b0" font-size="8.5">● create_contact</text>
<text x="720" y="235" fill="#8a97b0" font-size="8.5">● update_contact</text>
<text x="720" y="248" fill="#8a97b0" font-size="8.5">● delete_contact</text>
<text x="720" y="261" fill="#8a97b0" font-size="8.5">● search_contacts</text>
<text x="720" y="275" fill="#7c4dff" font-size="8">→ ContactApiService · ORM</text>
<text x="720" y="301" fill="#7c4dff" font-size="7.5" font-style="italic">tools.py · LangChain</text>

<!-- ═══ Arrows Django → Data ═══ -->
<!-- Services → PostgreSQL -->
<line x1="294" y1="320" x2="136" y2="345" stroke="#12c99b" stroke-width="1.5" marker-end="url(#an)"/>
<text x="210" y="337" fill="#12c99b" font-size="8" text-anchor="middle">ORM</text>

<!-- RAG → ChromaDB -->
<line x1="462" y1="315" x2="344" y2="345" stroke="#7c4dff" stroke-width="1.5" marker-end="url(#ap)"/>
<text x="400" y="337" fill="#7c4dff" font-size="8" text-anchor="middle">vector query</text>

<!-- LangGraph Agent → OpenAI GPT-4o (THE key LLM connection) -->
<line x1="621" y1="315" x2="553" y2="345" stroke="#6ea8fe" stroke-width="2.5" marker-end="url(#ab)"/>
<text x="595" y="336" fill="#6ea8fe" font-size="8" text-anchor="middle" font-weight="600">GPT-4o · HTTPS</text>

<!-- ══════════════════════════ DATA / INFRASTRUCTURE LAYER ══════════════════════════ -->
<rect x="20" y="345" width="860" height="148" rx="10" fill="none" stroke="#12c99b" stroke-dasharray="5 3"/>
<text x="36" y="362" fill="#12c99b" font-size="9" font-weight="600" letter-spacing="2">DATA / INFRASTRUCTURE</text>

<!-- PostgreSQL (cylinder icon) -->
<rect x="38" y="368" width="195" height="117" rx="8" fill="#0a1628" stroke="#12c99b" stroke-width="1.5"/>
<ellipse cx="79" cy="390" rx="20" ry="7" fill="rgba(18,201,155,0.15)" stroke="#12c99b" stroke-width="1.3"/>
<rect x="59" y="390" width="40" height="20" fill="#0a1628"/>
<line x1="59" y1="390" x2="59" y2="410" stroke="#12c99b" stroke-width="1.3"/>
<line x1="99" y1="390" x2="99" y2="410" stroke="#12c99b" stroke-width="1.3"/>
<ellipse cx="79" cy="410" rx="20" ry="7" fill="rgba(18,201,155,0.2)" stroke="#12c99b" stroke-width="1.3"/>
<text x="111" y="390" fill="#12c99b" font-size="11" font-weight="600">PostgreSQL 16</text>
<text x="48" y="426" fill="#8a97b0" font-size="9">contacts + auth_user tables</text>
<text x="48" y="440" fill="#8a97b0" font-size="9">Django ORM · psycopg2</text>
<text x="48" y="454" fill="#8a97b0" font-size="9">Docker volume: postgres_data</text>
<text x="48" y="473" fill="#12c99b" font-size="7.5" font-style="italic">Production database</text>

<!-- ChromaDB (hexagon icon) -->
<rect x="251" y="368" width="193" height="117" rx="8" fill="#0a1628" stroke="#7c4dff" stroke-width="1.5"/>
<polygon points="281,385 299,375 317,385 317,405 299,415 281,405" fill="rgba(124,77,255,0.18)" stroke="#7c4dff" stroke-width="1.3"/>
<text x="299" y="398" text-anchor="middle" fill="#7c4dff" font-size="11" font-weight="700">⬡</text>
<text x="328" y="390" fill="#7c4dff" font-size="11" font-weight="600">ChromaDB</text>
<text x="261" y="424" fill="#8a97b0" font-size="9">phonebook_policies collection</text>
<text x="261" y="438" fill="#8a97b0" font-size="9">1536-dim vector embeddings</text>
<text x="261" y="452" fill="#8a97b0" font-size="9">HTTP API · port 8001</text>
<text x="261" y="473" fill="#7c4dff" font-size="7.5" font-style="italic">Vector store (RAG) · Docker vol.</text>

<!-- OpenAI API (GPT circle icon) -->
<rect x="462" y="368" width="193" height="117" rx="8" fill="#0a1628" stroke="#6ea8fe" stroke-width="2"/>
<circle cx="498" cy="393" rx="18" ry="18" r="18" fill="rgba(110,168,254,0.15)" stroke="#6ea8fe" stroke-width="1.8"/>
<text x="498" y="398" text-anchor="middle" fill="#6ea8fe" font-size="9.5" font-weight="700">GPT</text>
<text x="527" y="390" fill="#6ea8fe" font-size="11" font-weight="600">OpenAI API</text>
<text x="472" y="421" fill="#8a97b0" font-size="9">GPT-4o — LLM + function calling</text>
<text x="472" y="435" fill="#8a97b0" font-size="9">text-embedding-3-small</text>
<text x="472" y="449" fill="#8a97b0" font-size="9">External · HTTPS</text>
<text x="472" y="473" fill="#6ea8fe" font-size="7.5" font-style="italic">Cloud LLM provider</text>

<!-- Django Session -->
<rect x="673" y="368" width="189" height="117" rx="8" fill="#0a1628" stroke="#ff5d73" stroke-width="1.5"/>
<circle cx="710" cy="393" r="18" fill="rgba(255,93,115,0.12)" stroke="#ff5d73" stroke-width="1.5"/>
<text x="710" y="399" text-anchor="middle" fill="#ff5d73" font-size="13">⚡</text>
<text x="738" y="390" fill="#ff5d73" font-size="11" font-weight="600">Django Session</text>
<text x="683" y="421" fill="#8a97b0" font-size="9">ai_chat_history (ephemeral)</text>
<text x="683" y="435" fill="#8a97b0" font-size="9">JWT token · cleared on logout</text>
<text x="683" y="449" fill="#8a97b0" font-size="9">Never written to the database</text>
<text x="683" y="473" fill="#ff5d73" font-size="7.5" font-style="italic">Privacy-first · browser session only</text>

<!-- ══════════════════════════ KNOWLEDGE BASE FOOTER ══════════════════════════ -->
<rect x="195" y="505" width="510" height="26" rx="6" fill="rgba(124,77,255,0.10)" stroke="#7c4dff" stroke-width="1"/>
<text x="450" y="522" text-anchor="middle" fill="#7c4dff" font-size="9.5">knowledge_base/phonebook_policies.md  ──→  ChromaDB  ──→  RAG context injection</text>
<!-- Arrow from KB label up to ChromaDB box -->
<line x1="348" y1="505" x2="348" y2="485" stroke="#7c4dff" stroke-width="1" stroke-dasharray="3 2" marker-end="url(#ap)"/>
</svg>
